<mxfile host="Electron" agent="Mozilla/5.0 (Windows NT 10.0; Win64; x64) AppleWebKit/537.36 (KHTML, like Gecko) draw.io/24.7.17 Chrome/128.0.6613.36 Electron/32.0.1 Safari/537.36" version="24.7.17">
  <diagram name="Page-1" id="e7e014a7-5840-1c2e-5031-d8a46d1fe8dd">
    <mxGraphModel dx="1036" dy="1433" grid="1" gridSize="10" guides="1" tooltips="1" connect="1" arrows="1" fold="1" page="1" pageScale="1" pageWidth="1169" pageHeight="826" background="none" math="0" shadow="0">
      <root>
        <mxCell id="0" />
        <mxCell id="1" parent="0" />
        <mxCell id="SxPEQGApZWsC9rqTHvff-37" style="edgeStyle=orthogonalEdgeStyle;rounded=0;orthogonalLoop=1;jettySize=auto;html=1;exitX=0.5;exitY=1;exitDx=0;exitDy=0;entryX=0.5;entryY=0;entryDx=0;entryDy=0;endArrow=none;endFill=0;strokeWidth=3;strokeColor=#5b77a1;fontFamily=Tahoma;fontStyle=0" parent="1" source="SxPEQGApZWsC9rqTHvff-35" target="SxPEQGApZWsC9rqTHvff-36" edge="1">
          <mxGeometry relative="1" as="geometry">
            <Array as="points">
              <mxPoint x="315" y="910" />
              <mxPoint x="315" y="910" />
            </Array>
          </mxGeometry>
        </mxCell>
        <mxCell id="3" value="后&#xa;端&#xa;服&#xa;务" style="swimlane;whiteSpace=wrap;startSize=50;direction=north;fontSize=28;strokeWidth=2;fontFamily=Tahoma;fontStyle=0" parent="1" vertex="1">
          <mxGeometry x="170" y="480" width="1250" height="400" as="geometry" />
        </mxCell>
        <mxCell id="SxPEQGApZWsC9rqTHvff-42" style="edgeStyle=orthogonalEdgeStyle;rounded=0;orthogonalLoop=1;jettySize=auto;html=1;exitX=0.5;exitY=1;exitDx=0;exitDy=0;endArrow=none;endFill=0;strokeWidth=3;fillColor=#f8cecc;strokeColor=#b85450;fontFamily=Tahoma;fontStyle=0" parent="3" source="SxPEQGApZWsC9rqTHvff-40" target="Py5HU_dpRkEgIAF00YqD-6" edge="1">
          <mxGeometry relative="1" as="geometry">
            <Array as="points">
              <mxPoint x="305" y="250" />
              <mxPoint x="900" y="250" />
            </Array>
          </mxGeometry>
        </mxCell>
        <mxCell id="SxPEQGApZWsC9rqTHvff-35" value="&lt;span style=&quot;font-size: 15px;&quot;&gt;用户登入注册&lt;br style=&quot;font-size: 15px;&quot;&gt;认证服务&lt;/span&gt;" style="rounded=0;whiteSpace=wrap;html=1;fontSize=15;fillColor=#dae8fc;strokeColor=#6c8ebf;fontFamily=Tahoma;fontStyle=0" parent="3" vertex="1">
          <mxGeometry x="80" y="80" width="130" height="50" as="geometry" />
        </mxCell>
        <mxCell id="bKYKXZFoOEibJwhLb-Ia-7" style="edgeStyle=orthogonalEdgeStyle;rounded=0;orthogonalLoop=1;jettySize=auto;html=1;exitX=0.5;exitY=1;exitDx=0;exitDy=0;endArrow=none;endFill=0;strokeWidth=3;fillColor=#f8cecc;strokeColor=#b85450;entryX=0.654;entryY=0;entryDx=0;entryDy=0;entryPerimeter=0;fontFamily=Tahoma;fontStyle=0" parent="3" source="SxPEQGApZWsC9rqTHvff-40" target="Py5HU_dpRkEgIAF00YqD-4" edge="1">
          <mxGeometry relative="1" as="geometry">
            <mxPoint x="801" y="301" as="targetPoint" />
            <Array as="points">
              <mxPoint x="305" y="250" />
              <mxPoint x="800" y="250" />
            </Array>
          </mxGeometry>
        </mxCell>
        <mxCell id="SxPEQGApZWsC9rqTHvff-40" value="&lt;span style=&quot;font-size: 15px;&quot;&gt;原文与专家解读&lt;/span&gt;&lt;br style=&quot;padding: 0px; margin: 0px; font-size: 15px;&quot;&gt;&lt;span style=&quot;font-size: 15px;&quot;&gt;内容阅读服务&lt;/span&gt;" style="rounded=0;whiteSpace=wrap;html=1;fontSize=15;fillColor=#f8cecc;strokeColor=#b85450;fontFamily=Tahoma;fontStyle=0" parent="3" vertex="1">
          <mxGeometry x="240" y="80" width="130" height="50" as="geometry" />
        </mxCell>
        <mxCell id="SxPEQGApZWsC9rqTHvff-43" value="AI阅读问答服务" style="whiteSpace=wrap;strokeWidth=1;fontSize=15;fillColor=#d5e8d4;strokeColor=#82b366;fontFamily=Tahoma;fontStyle=0" parent="3" vertex="1">
          <mxGeometry x="400" y="80" width="130" height="50" as="geometry" />
        </mxCell>
        <mxCell id="SxPEQGApZWsC9rqTHvff-48" value="媒体管理服务" style="whiteSpace=wrap;strokeWidth=1;fontSize=15;fillColor=#ffe6cc;strokeColor=#d79b00;fontFamily=Tahoma;fontStyle=0" parent="3" vertex="1">
          <mxGeometry x="570" y="80" width="130" height="50" as="geometry" />
        </mxCell>
        <mxCell id="SxPEQGApZWsC9rqTHvff-55" value="成就系统服务" style="whiteSpace=wrap;strokeWidth=1;fontSize=15;fillColor=#e1d5e7;strokeColor=#9673a6;fontFamily=Tahoma;fontStyle=0" parent="3" vertex="1">
          <mxGeometry x="715" y="80" width="130" height="50" as="geometry" />
        </mxCell>
        <mxCell id="SxPEQGApZWsC9rqTHvff-61" value="知识图谱服务" style="whiteSpace=wrap;strokeWidth=1;fontSize=15;fillColor=#6d8764;strokeColor=#3A5431;fontColor=#ffffff;fontFamily=Tahoma;fontStyle=0" parent="3" vertex="1">
          <mxGeometry x="895" y="80" width="130" height="50" as="geometry" />
        </mxCell>
        <mxCell id="SxPEQGApZWsC9rqTHvff-64" value="社群互动服务" style="whiteSpace=wrap;strokeWidth=1;fontSize=16;fillColor=#0050ef;strokeColor=#001DBC;fontColor=#ffffff;fontFamily=Tahoma;fontStyle=0" parent="3" vertex="1">
          <mxGeometry x="1070" y="80" width="130" height="50" as="geometry" />
        </mxCell>
        <mxCell id="Py5HU_dpRkEgIAF00YqD-3" value="用户基本资料存取" style="rounded=0;whiteSpace=wrap;html=1;fontSize=15;fontFamily=Tahoma;fontStyle=0" parent="3" vertex="1">
          <mxGeometry x="540" y="300" width="130" height="50" as="geometry" />
        </mxCell>
        <mxCell id="SxPEQGApZWsC9rqTHvff-38" style="edgeStyle=orthogonalEdgeStyle;rounded=0;orthogonalLoop=1;jettySize=auto;html=1;exitX=0.5;exitY=1;exitDx=0;exitDy=0;entryX=0.5;entryY=0;entryDx=0;entryDy=0;endArrow=none;endFill=0;strokeWidth=3;fillColor=#dae8fc;strokeColor=#5B77A1;fontFamily=Tahoma;fontStyle=0" parent="3" source="SxPEQGApZWsC9rqTHvff-35" target="Py5HU_dpRkEgIAF00YqD-3" edge="1">
          <mxGeometry relative="1" as="geometry">
            <Array as="points">
              <mxPoint x="145" y="280" />
              <mxPoint x="605" y="280" />
            </Array>
          </mxGeometry>
        </mxCell>
        <mxCell id="Py5HU_dpRkEgIAF00YqD-4" value="用户内容资料存取" style="rounded=0;whiteSpace=wrap;html=1;fontSize=15;fontFamily=Tahoma;fontStyle=0" parent="3" vertex="1">
          <mxGeometry x="715" y="300" width="130" height="50" as="geometry" />
        </mxCell>
        <mxCell id="Py5HU_dpRkEgIAF00YqD-6" value="知识资料存取" style="rounded=0;whiteSpace=wrap;html=1;fontSize=15;fontFamily=Tahoma;fontStyle=0" parent="3" vertex="1">
          <mxGeometry x="880" y="300" width="150" height="50" as="geometry" />
        </mxCell>
        <mxCell id="SxPEQGApZWsC9rqTHvff-46" style="edgeStyle=orthogonalEdgeStyle;rounded=0;orthogonalLoop=1;jettySize=auto;html=1;exitX=0.5;exitY=1;exitDx=0;exitDy=0;endArrow=none;endFill=0;strokeWidth=3;fillColor=#d5e8d4;strokeColor=#82b366;fontFamily=Tahoma;fontStyle=0" parent="3" source="SxPEQGApZWsC9rqTHvff-43" edge="1">
          <mxGeometry relative="1" as="geometry">
            <mxPoint x="930" y="300" as="targetPoint" />
            <Array as="points">
              <mxPoint x="465" y="220" />
              <mxPoint x="930" y="220" />
            </Array>
          </mxGeometry>
        </mxCell>
        <mxCell id="SxPEQGApZWsC9rqTHvff-67" style="edgeStyle=orthogonalEdgeStyle;rounded=0;orthogonalLoop=1;jettySize=auto;html=1;exitX=0.5;exitY=1;exitDx=0;exitDy=0;entryX=0.75;entryY=0;entryDx=0;entryDy=0;strokeWidth=3;fillColor=#ffe6cc;strokeColor=#d79b00;endArrow=none;endFill=0;fontFamily=Tahoma;fontStyle=0" parent="3" source="SxPEQGApZWsC9rqTHvff-48" target="Py5HU_dpRkEgIAF00YqD-6" edge="1">
          <mxGeometry relative="1" as="geometry">
            <Array as="points">
              <mxPoint x="635" y="190" />
              <mxPoint x="993" y="190" />
              <mxPoint x="993" y="240" />
            </Array>
          </mxGeometry>
        </mxCell>
        <mxCell id="Py5HU_dpRkEgIAF00YqD-8" value="媒体资料存取" style="rounded=0;whiteSpace=wrap;html=1;fontSize=15;fontFamily=Tahoma;fontStyle=0" parent="3" vertex="1">
          <mxGeometry x="1080" y="300" width="140" height="50" as="geometry" />
        </mxCell>
        <mxCell id="SxPEQGApZWsC9rqTHvff-68" style="edgeStyle=orthogonalEdgeStyle;rounded=0;orthogonalLoop=1;jettySize=auto;html=1;exitX=0.5;exitY=1;exitDx=0;exitDy=0;entryX=0.5;entryY=0;entryDx=0;entryDy=0;fillColor=#ffe6cc;strokeColor=#d79b00;strokeWidth=3;endArrow=none;endFill=0;fontFamily=Tahoma;fontStyle=0" parent="3" source="SxPEQGApZWsC9rqTHvff-48" target="Py5HU_dpRkEgIAF00YqD-8" edge="1">
          <mxGeometry relative="1" as="geometry">
            <Array as="points">
              <mxPoint x="635" y="190" />
              <mxPoint x="1150" y="190" />
              <mxPoint x="1150" y="300" />
            </Array>
          </mxGeometry>
        </mxCell>
        <mxCell id="SxPEQGApZWsC9rqTHvff-56" style="edgeStyle=orthogonalEdgeStyle;rounded=0;orthogonalLoop=1;jettySize=auto;html=1;entryX=0.422;entryY=-0.004;entryDx=0;entryDy=0;fillColor=#e1d5e7;strokeColor=#9673a6;strokeWidth=3;endArrow=none;endFill=0;entryPerimeter=0;jumpSize=6;fontFamily=Tahoma;fontStyle=0" parent="3" target="Py5HU_dpRkEgIAF00YqD-4" edge="1">
          <mxGeometry relative="1" as="geometry">
            <Array as="points">
              <mxPoint x="770" y="130" />
            </Array>
            <mxPoint x="770" y="130" as="sourcePoint" />
          </mxGeometry>
        </mxCell>
        <mxCell id="SxPEQGApZWsC9rqTHvff-70" style="edgeStyle=orthogonalEdgeStyle;rounded=0;orthogonalLoop=1;jettySize=auto;html=1;exitX=0.5;exitY=1;exitDx=0;exitDy=0;entryX=0.717;entryY=0.013;entryDx=0;entryDy=0;strokeWidth=3;strokeColor=#001DBC;endArrow=none;endFill=0;fillColor=#0050ef;entryPerimeter=0;fontFamily=Tahoma;fontStyle=0" parent="3" edge="1">
          <mxGeometry relative="1" as="geometry">
            <Array as="points">
              <mxPoint x="1157" y="150" />
              <mxPoint x="830" y="150" />
              <mxPoint x="830" y="270" />
            </Array>
            <mxPoint x="1157.0000000000002" y="130" as="sourcePoint" />
            <mxPoint x="830.21" y="300.64999999999986" as="targetPoint" />
          </mxGeometry>
        </mxCell>
        <mxCell id="SxPEQGApZWsC9rqTHvff-69" style="edgeStyle=orthogonalEdgeStyle;rounded=0;orthogonalLoop=1;jettySize=auto;html=1;exitX=0.5;exitY=1;exitDx=0;exitDy=0;endArrow=none;endFill=0;strokeWidth=3;strokeColor=#6d8764;fontFamily=Tahoma;fontStyle=0" parent="3" source="SxPEQGApZWsC9rqTHvff-61" edge="1">
          <mxGeometry relative="1" as="geometry">
            <mxPoint x="960" y="300" as="targetPoint" />
            <Array as="points">
              <mxPoint x="960" y="300" />
            </Array>
          </mxGeometry>
        </mxCell>
        <mxCell id="bKYKXZFoOEibJwhLb-Ia-8" style="edgeStyle=orthogonalEdgeStyle;rounded=0;orthogonalLoop=1;jettySize=auto;html=1;exitX=0.5;exitY=1;exitDx=0;exitDy=0;entryX=0.181;entryY=0.004;entryDx=0;entryDy=0;entryPerimeter=0;strokeWidth=3;fillColor=#d5e8d4;strokeColor=#82b366;endArrow=none;endFill=0;fontFamily=Tahoma;fontStyle=0" parent="3" source="SxPEQGApZWsC9rqTHvff-43" target="Py5HU_dpRkEgIAF00YqD-4" edge="1">
          <mxGeometry relative="1" as="geometry">
            <Array as="points">
              <mxPoint x="465" y="220" />
              <mxPoint x="739" y="220" />
            </Array>
          </mxGeometry>
        </mxCell>
        <mxCell id="SxPEQGApZWsC9rqTHvff-12" value="API&#xa;服&#xa;务&#xa;层" style="swimlane;whiteSpace=wrap;direction=north;startSize=50;fontSize=21;strokeWidth=2;fontFamily=Tahoma;fontStyle=0" parent="1" vertex="1">
          <mxGeometry x="170" y="360" width="1250" height="120" as="geometry" />
        </mxCell>
        <mxCell id="SxPEQGApZWsC9rqTHvff-27" value="&lt;font style=&quot;font-size: 15px;&quot;&gt;API&amp;nbsp;闸道器&lt;br style=&quot;font-size: 15px;&quot;&gt;(API GateWay)&amp;nbsp;&lt;/font&gt;" style="rounded=0;whiteSpace=wrap;html=1;fontSize=15;fontFamily=Tahoma;fontStyle=0" parent="SxPEQGApZWsC9rqTHvff-12" vertex="1">
          <mxGeometry x="570" y="35" width="130" height="50" as="geometry" />
        </mxCell>
        <mxCell id="SxPEQGApZWsC9rqTHvff-33" value="外&#xa;部&#xa;服&#xa;务" style="swimlane;whiteSpace=wrap;startSize=50;direction=north;fontSize=26;strokeWidth=2;fontFamily=Tahoma;fontStyle=0" parent="1" vertex="1">
          <mxGeometry x="170" y="880" width="470" height="360" as="geometry" />
        </mxCell>
        <mxCell id="SxPEQGApZWsC9rqTHvff-36" value="&lt;span style=&quot;font-size: 16px;&quot;&gt;第三方登入&lt;/span&gt;" style="rounded=0;whiteSpace=wrap;html=1;fontSize=16;fontFamily=Tahoma;fontStyle=0" parent="SxPEQGApZWsC9rqTHvff-33" vertex="1">
          <mxGeometry x="80" y="55" width="130" height="50" as="geometry" />
        </mxCell>
        <mxCell id="SxPEQGApZWsC9rqTHvff-44" value="&lt;span style=&quot;font-size: 16px;&quot;&gt;LLM &lt;/span&gt;&lt;span style=&quot;font-size: 16px;&quot;&gt;引擎&lt;br style=&quot;font-size: 16px;&quot;&gt;&lt;/span&gt;Perplexity API" style="rounded=0;whiteSpace=wrap;html=1;fontSize=16;fontFamily=Tahoma;fontStyle=0" parent="SxPEQGApZWsC9rqTHvff-33" vertex="1">
          <mxGeometry x="220" y="55" width="130" height="50" as="geometry" />
        </mxCell>
        <mxCell id="SxPEQGApZWsC9rqTHvff-51" value="&lt;span style=&quot;font-size: 16px;&quot;&gt;AI语音&lt;br style=&quot;font-size: 16px;&quot;&gt;朗读服务&lt;/span&gt;" style="rounded=0;whiteSpace=wrap;html=1;fontSize=16;fontFamily=Tahoma;fontStyle=0" parent="SxPEQGApZWsC9rqTHvff-33" vertex="1">
          <mxGeometry x="360" y="55" width="90" height="50" as="geometry" />
        </mxCell>
        <mxCell id="SxPEQGApZWsC9rqTHvff-34" value="资&#xa;料&#xa;库" style="swimlane;whiteSpace=wrap;startSize=50;direction=north;fontSize=28;strokeWidth=2;fontFamily=Tahoma;fontStyle=0" parent="1" vertex="1">
          <mxGeometry x="630" y="880" width="790" height="361" as="geometry" />
        </mxCell>
        <mxCell id="bqFWS5N9uW7Ea1BvdyN1-56" value="&lt;font style=&quot;font-size: 16px;&quot;&gt;用户基本数据库&lt;br style=&quot;padding: 0px; margin: 0px; font-size: 16px;&quot;&gt;PostgreSQL：&lt;br style=&quot;padding: 0px; margin: 0px; font-size: 16px;&quot;&gt;用户资料/权限/设定&lt;/font&gt;" style="shape=cylinder3;whiteSpace=wrap;html=1;boundedLbl=1;backgroundOutline=1;size=15;fontSize=16;fillColor=#dae8fc;strokeColor=#6c8ebf;strokeWidth=2;fontFamily=Tahoma;fontStyle=0" parent="SxPEQGApZWsC9rqTHvff-34" vertex="1">
          <mxGeometry x="70" y="51" width="150" height="140" as="geometry" />
        </mxCell>
        <mxCell id="bqFWS5N9uW7Ea1BvdyN1-55" value="&lt;font style=&quot;font-size: 17px;&quot;&gt;用户内容数据库&lt;br style=&quot;padding: 0px; margin: 0px; font-size: 17px;&quot;&gt;PostgreSQL：&lt;br style=&quot;padding: 0px; margin: 0px; font-size: 17px;&quot;&gt;进度/笔记/讨论/成就&lt;/font&gt;" style="shape=cylinder3;whiteSpace=wrap;html=1;boundedLbl=1;backgroundOutline=1;size=15;fontSize=17;fillColor=#dae8fc;strokeColor=#6c8ebf;strokeWidth=2;fontFamily=Tahoma;fontStyle=0" parent="SxPEQGApZWsC9rqTHvff-34" vertex="1">
          <mxGeometry x="240" y="51" width="160" height="140" as="geometry" />
        </mxCell>
        <mxCell id="SxPEQGApZWsC9rqTHvff-49" value="&lt;span style=&quot;font-size: 15px;&quot;&gt;红学文本知识库：&lt;/span&gt;&lt;span style=&quot;font-size: 15px;&quot;&gt;&lt;br style=&quot;font-size: 15px;&quot;&gt;背景知识&amp;nbsp;&lt;/span&gt;&lt;span style=&quot;font-size: 15px;&quot;&gt;/&lt;br style=&quot;font-size: 15px;&quot;&gt;红楼梦原文、&lt;br style=&quot;font-size: 15px;&quot;&gt;专家解读内容&lt;/span&gt;" style="shape=cylinder3;whiteSpace=wrap;html=1;boundedLbl=1;backgroundOutline=1;size=15;fontSize=15;fillColor=#dae8fc;strokeColor=#6c8ebf;strokeWidth=2;fontFamily=Tahoma;fontStyle=0" parent="SxPEQGApZWsC9rqTHvff-34" vertex="1">
          <mxGeometry x="415" y="51" width="160" height="140" as="geometry" />
        </mxCell>
        <mxCell id="bKYKXZFoOEibJwhLb-Ia-3" value="红楼梦人物知识库：&lt;br&gt;Neo4j&amp;nbsp;人物关系&lt;br&gt;知识图谱" style="shape=cylinder3;whiteSpace=wrap;html=1;boundedLbl=1;backgroundOutline=1;size=15;fontSize=15;fillColor=#dae8fc;strokeColor=#6c8ebf;strokeWidth=2;fontFamily=Tahoma;fontStyle=0" parent="SxPEQGApZWsC9rqTHvff-34" vertex="1">
          <mxGeometry x="415" y="210" width="160" height="140" as="geometry" />
        </mxCell>
        <mxCell id="SxPEQGApZWsC9rqTHvff-50" value="&lt;font style=&quot;font-size: 17px;&quot;&gt;媒体数据库&lt;br style=&quot;padding: 0px; margin: 0px; font-size: 17px;&quot;&gt;MongoDB&lt;br style=&quot;padding: 0px; margin: 0px; font-size: 17px;&quot;&gt;：图片&lt;br style=&quot;padding: 0px; margin: 0px; font-size: 17px;&quot;&gt;多媒体内容&lt;/font&gt;" style="shape=cylinder3;whiteSpace=wrap;html=1;boundedLbl=1;backgroundOutline=1;size=15;fontSize=17;fillColor=#dae8fc;strokeColor=#6c8ebf;strokeWidth=2;fontFamily=Tahoma;fontStyle=0" parent="SxPEQGApZWsC9rqTHvff-34" vertex="1">
          <mxGeometry x="610" y="51" width="160" height="140" as="geometry" />
        </mxCell>
        <mxCell id="SxPEQGApZWsC9rqTHvff-39" style="edgeStyle=orthogonalEdgeStyle;rounded=0;orthogonalLoop=1;jettySize=auto;html=1;exitX=0.5;exitY=1;exitDx=0;exitDy=0;entryX=0.5;entryY=0;entryDx=0;entryDy=0;endArrow=none;endFill=0;strokeWidth=3;fontFamily=Tahoma;fontStyle=0" parent="1" source="SxPEQGApZWsC9rqTHvff-27" target="SxPEQGApZWsC9rqTHvff-35" edge="1">
          <mxGeometry relative="1" as="geometry" />
        </mxCell>
        <mxCell id="SxPEQGApZWsC9rqTHvff-41" style="edgeStyle=orthogonalEdgeStyle;rounded=0;orthogonalLoop=1;jettySize=auto;html=1;exitX=0.5;exitY=1;exitDx=0;exitDy=0;entryX=0.5;entryY=0;entryDx=0;entryDy=0;fontSize=11;endArrow=none;endFill=0;strokeWidth=3;fontFamily=Tahoma;fontStyle=0" parent="1" source="SxPEQGApZWsC9rqTHvff-27" target="SxPEQGApZWsC9rqTHvff-40" edge="1">
          <mxGeometry relative="1" as="geometry" />
        </mxCell>
        <mxCell id="SxPEQGApZWsC9rqTHvff-45" style="edgeStyle=orthogonalEdgeStyle;rounded=0;orthogonalLoop=1;jettySize=auto;html=1;exitX=0.5;exitY=1;exitDx=0;exitDy=0;entryX=0.5;entryY=0;entryDx=0;entryDy=0;strokeWidth=3;endArrow=none;endFill=0;fillColor=#d5e8d4;strokeColor=#82b366;fontFamily=Tahoma;fontStyle=0" parent="1" source="SxPEQGApZWsC9rqTHvff-43" target="SxPEQGApZWsC9rqTHvff-44" edge="1">
          <mxGeometry relative="1" as="geometry">
            <Array as="points">
              <mxPoint x="635" y="700" />
              <mxPoint x="455" y="700" />
            </Array>
          </mxGeometry>
        </mxCell>
        <mxCell id="SxPEQGApZWsC9rqTHvff-47" style="edgeStyle=orthogonalEdgeStyle;rounded=0;orthogonalLoop=1;jettySize=auto;html=1;exitX=0.5;exitY=1;exitDx=0;exitDy=0;entryX=0.5;entryY=0;entryDx=0;entryDy=0;strokeWidth=3;endArrow=none;endFill=0;fontFamily=Tahoma;fontStyle=0" parent="1" source="SxPEQGApZWsC9rqTHvff-27" target="SxPEQGApZWsC9rqTHvff-43" edge="1">
          <mxGeometry relative="1" as="geometry" />
        </mxCell>
        <mxCell id="2" value="前&#xa;端&#xa;介&#xa;面" style="swimlane;whiteSpace=wrap;startSize=50;direction=north;fontSize=27;strokeWidth=2;fontFamily=Tahoma;fontStyle=0" parent="1" vertex="1">
          <mxGeometry x="170" y="-190" width="1250" height="550" as="geometry">
            <mxRectangle x="170" y="110" width="60" height="30" as="alternateBounds" />
          </mxGeometry>
        </mxCell>
        <mxCell id="bKYKXZFoOEibJwhLb-Ia-5" style="edgeStyle=orthogonalEdgeStyle;rounded=0;orthogonalLoop=1;jettySize=auto;html=1;exitX=0.5;exitY=1;exitDx=0;exitDy=0;entryX=0.5;entryY=0;entryDx=0;entryDy=0;strokeWidth=2;endArrow=none;endFill=0;fontFamily=Tahoma;fontStyle=0" parent="2" source="bqFWS5N9uW7Ea1BvdyN1-43" target="bqFWS5N9uW7Ea1BvdyN1-44" edge="1">
          <mxGeometry relative="1" as="geometry" />
        </mxCell>
        <mxCell id="bqFWS5N9uW7Ea1BvdyN1-43" value="登入注册页面" style="rounded=0;whiteSpace=wrap;html=1;fontSize=15;fontFamily=Tahoma;fontStyle=0" parent="2" vertex="1">
          <mxGeometry x="577.5" y="110" width="120" height="40" as="geometry" />
        </mxCell>
        <mxCell id="bKYKXZFoOEibJwhLb-Ia-6" style="edgeStyle=orthogonalEdgeStyle;rounded=0;orthogonalLoop=1;jettySize=auto;html=1;exitX=0.5;exitY=1;exitDx=0;exitDy=0;entryX=0.5;entryY=0;entryDx=0;entryDy=0;endArrow=none;endFill=0;strokeWidth=2;fontFamily=Tahoma;fontStyle=0" parent="2" source="bqFWS5N9uW7Ea1BvdyN1-42" target="bqFWS5N9uW7Ea1BvdyN1-43" edge="1">
          <mxGeometry relative="1" as="geometry" />
        </mxCell>
        <mxCell id="bqFWS5N9uW7Ea1BvdyN1-42" value="访客介绍页面" style="rounded=0;whiteSpace=wrap;html=1;fontSize=15;fontFamily=Tahoma;fontStyle=0" parent="2" vertex="1">
          <mxGeometry x="577.5" y="30" width="120" height="40" as="geometry" />
        </mxCell>
        <mxCell id="bqFWS5N9uW7Ea1BvdyN1-44" value="首页" style="rounded=0;whiteSpace=wrap;html=1;fontSize=16;fontFamily=Tahoma;fontStyle=0" parent="2" vertex="1">
          <mxGeometry x="592.5" y="190" width="90" height="37" as="geometry" />
        </mxCell>
        <mxCell id="bqFWS5N9uW7Ea1BvdyN1-47" value="阅读页面" style="rounded=0;whiteSpace=wrap;html=1;fontSize=14;fontFamily=Tahoma;fontStyle=0" parent="2" vertex="1">
          <mxGeometry x="400" y="350" width="90" height="40" as="geometry" />
        </mxCell>
        <mxCell id="bqFWS5N9uW7Ea1BvdyN1-51" style="edgeStyle=orthogonalEdgeStyle;rounded=0;orthogonalLoop=1;jettySize=auto;html=1;exitX=0.5;exitY=0;exitDx=0;exitDy=0;entryX=0.5;entryY=1;entryDx=0;entryDy=0;endArrow=none;endFill=0;strokeWidth=2;fontFamily=Tahoma;fontStyle=0" parent="2" source="bqFWS5N9uW7Ea1BvdyN1-47" target="bqFWS5N9uW7Ea1BvdyN1-44" edge="1">
          <mxGeometry relative="1" as="geometry" />
        </mxCell>
        <mxCell id="bqFWS5N9uW7Ea1BvdyN1-54" style="edgeStyle=orthogonalEdgeStyle;rounded=0;orthogonalLoop=1;jettySize=auto;html=1;exitX=0.5;exitY=1;exitDx=0;exitDy=0;entryX=0.5;entryY=0;entryDx=0;entryDy=0;endArrow=none;endFill=0;strokeWidth=2;fontFamily=Tahoma;fontStyle=0" parent="2" source="bqFWS5N9uW7Ea1BvdyN1-44" target="bqFWS5N9uW7Ea1BvdyN1-50" edge="1">
          <mxGeometry relative="1" as="geometry" />
        </mxCell>
        <mxCell id="bqFWS5N9uW7Ea1BvdyN1-53" style="edgeStyle=orthogonalEdgeStyle;rounded=0;orthogonalLoop=1;jettySize=auto;html=1;exitX=0.5;exitY=1;exitDx=0;exitDy=0;endArrow=none;endFill=0;strokeWidth=2;fontFamily=Tahoma;fontStyle=0" parent="2" source="bqFWS5N9uW7Ea1BvdyN1-44" target="bqFWS5N9uW7Ea1BvdyN1-49" edge="1">
          <mxGeometry relative="1" as="geometry" />
        </mxCell>
        <mxCell id="bqFWS5N9uW7Ea1BvdyN1-52" style="edgeStyle=orthogonalEdgeStyle;rounded=0;orthogonalLoop=1;jettySize=auto;html=1;exitX=0.5;exitY=1;exitDx=0;exitDy=0;entryX=0.5;entryY=0;entryDx=0;entryDy=0;endArrow=none;endFill=0;strokeWidth=2;fontFamily=Tahoma;fontStyle=0" parent="2" source="bqFWS5N9uW7Ea1BvdyN1-44" target="bqFWS5N9uW7Ea1BvdyN1-48" edge="1">
          <mxGeometry relative="1" as="geometry" />
        </mxCell>
        <mxCell id="bqFWS5N9uW7Ea1BvdyN1-48" value="成就系统页面" style="rounded=0;whiteSpace=wrap;html=1;fontSize=15;fontFamily=Tahoma;fontStyle=0" parent="2" vertex="1">
          <mxGeometry x="510" y="350" width="110" height="40" as="geometry" />
        </mxCell>
        <mxCell id="bqFWS5N9uW7Ea1BvdyN1-49" value="讨论互动社区页面" style="rounded=0;whiteSpace=wrap;html=1;fontSize=14;fontFamily=Tahoma;fontStyle=0" parent="2" vertex="1">
          <mxGeometry x="640" y="350" width="120" height="40" as="geometry" />
        </mxCell>
        <mxCell id="bqFWS5N9uW7Ea1BvdyN1-50" value="总人物关系&lt;br style=&quot;font-size: 14px;&quot;&gt;图谱页面" style="rounded=0;whiteSpace=wrap;html=1;fontSize=14;fontFamily=Tahoma;fontStyle=0" parent="2" vertex="1">
          <mxGeometry x="780" y="350" width="120" height="40" as="geometry" />
        </mxCell>
        <mxCell id="SxPEQGApZWsC9rqTHvff-32" style="edgeStyle=orthogonalEdgeStyle;rounded=0;orthogonalLoop=1;jettySize=auto;html=1;exitX=0;exitY=0.5;exitDx=0;exitDy=0;entryX=0;entryY=0.5;entryDx=0;entryDy=0;endArrow=none;endFill=0;dashed=1;strokeWidth=2;fontFamily=Tahoma;fontStyle=0" parent="1" source="bqFWS5N9uW7Ea1BvdyN1-43" target="SxPEQGApZWsC9rqTHvff-27" edge="1">
          <mxGeometry relative="1" as="geometry">
            <Array as="points">
              <mxPoint x="500" y="-60" />
              <mxPoint x="500" y="420" />
            </Array>
          </mxGeometry>
        </mxCell>
        <mxCell id="SxPEQGApZWsC9rqTHvff-28" style="edgeStyle=orthogonalEdgeStyle;rounded=0;orthogonalLoop=1;jettySize=auto;html=1;exitX=0.5;exitY=1;exitDx=0;exitDy=0;entryX=0.5;entryY=0;entryDx=0;entryDy=0;dashed=1;endArrow=none;endFill=0;strokeWidth=2;fontFamily=Tahoma;fontStyle=0" parent="1" source="bqFWS5N9uW7Ea1BvdyN1-47" target="SxPEQGApZWsC9rqTHvff-27" edge="1">
          <mxGeometry relative="1" as="geometry">
            <Array as="points">
              <mxPoint x="615" y="280" />
              <mxPoint x="805" y="280" />
            </Array>
          </mxGeometry>
        </mxCell>
        <mxCell id="SxPEQGApZWsC9rqTHvff-29" style="edgeStyle=orthogonalEdgeStyle;rounded=0;orthogonalLoop=1;jettySize=auto;html=1;exitX=0.5;exitY=1;exitDx=0;exitDy=0;endArrow=none;endFill=0;dashed=1;strokeWidth=2;fontFamily=Tahoma;fontStyle=0" parent="1" source="bqFWS5N9uW7Ea1BvdyN1-48" target="SxPEQGApZWsC9rqTHvff-27" edge="1">
          <mxGeometry relative="1" as="geometry">
            <Array as="points">
              <mxPoint x="735" y="280" />
              <mxPoint x="805" y="280" />
            </Array>
          </mxGeometry>
        </mxCell>
        <mxCell id="SxPEQGApZWsC9rqTHvff-30" style="edgeStyle=orthogonalEdgeStyle;rounded=0;orthogonalLoop=1;jettySize=auto;html=1;exitX=0.5;exitY=1;exitDx=0;exitDy=0;entryX=0.5;entryY=0;entryDx=0;entryDy=0;endArrow=none;endFill=0;dashed=1;strokeWidth=2;fontFamily=Tahoma;fontStyle=0" parent="1" source="bqFWS5N9uW7Ea1BvdyN1-49" target="SxPEQGApZWsC9rqTHvff-27" edge="1">
          <mxGeometry relative="1" as="geometry">
            <Array as="points">
              <mxPoint x="870" y="280" />
              <mxPoint x="805" y="280" />
            </Array>
          </mxGeometry>
        </mxCell>
        <mxCell id="SxPEQGApZWsC9rqTHvff-31" style="edgeStyle=orthogonalEdgeStyle;rounded=0;orthogonalLoop=1;jettySize=auto;html=1;exitX=0.5;exitY=1;exitDx=0;exitDy=0;entryX=0.5;entryY=0;entryDx=0;entryDy=0;endArrow=none;endFill=0;dashed=1;strokeWidth=2;fontFamily=Tahoma;fontStyle=0" parent="1" source="bqFWS5N9uW7Ea1BvdyN1-50" target="SxPEQGApZWsC9rqTHvff-27" edge="1">
          <mxGeometry relative="1" as="geometry">
            <Array as="points">
              <mxPoint x="1010" y="280" />
              <mxPoint x="805" y="280" />
            </Array>
          </mxGeometry>
        </mxCell>
        <mxCell id="SxPEQGApZWsC9rqTHvff-54" style="edgeStyle=orthogonalEdgeStyle;rounded=0;orthogonalLoop=1;jettySize=auto;html=1;exitX=0.5;exitY=1;exitDx=0;exitDy=0;entryX=0.5;entryY=0;entryDx=0;entryDy=0;strokeWidth=3;endArrow=none;endFill=0;fontFamily=Tahoma;fontStyle=0" parent="1" source="SxPEQGApZWsC9rqTHvff-27" target="SxPEQGApZWsC9rqTHvff-48" edge="1">
          <mxGeometry relative="1" as="geometry" />
        </mxCell>
        <mxCell id="SxPEQGApZWsC9rqTHvff-57" style="edgeStyle=orthogonalEdgeStyle;rounded=0;orthogonalLoop=1;jettySize=auto;html=1;exitX=0.5;exitY=1;exitDx=0;exitDy=0;entryX=0.5;entryY=0;entryDx=0;entryDy=0;fillColor=#ffe6cc;strokeColor=#d79b00;endArrow=none;endFill=0;strokeWidth=3;fontFamily=Tahoma;fontStyle=0" parent="1" source="SxPEQGApZWsC9rqTHvff-48" target="SxPEQGApZWsC9rqTHvff-51" edge="1">
          <mxGeometry relative="1" as="geometry">
            <Array as="points">
              <mxPoint x="805" y="670" />
              <mxPoint x="575" y="670" />
            </Array>
          </mxGeometry>
        </mxCell>
        <mxCell id="SxPEQGApZWsC9rqTHvff-60" style="edgeStyle=orthogonalEdgeStyle;rounded=0;orthogonalLoop=1;jettySize=auto;html=1;exitX=0.5;exitY=1;exitDx=0;exitDy=0;entryX=0.5;entryY=0;entryDx=0;entryDy=0;strokeWidth=3;endArrow=none;endFill=0;fontFamily=Tahoma;fontStyle=0" parent="1" source="SxPEQGApZWsC9rqTHvff-27" target="SxPEQGApZWsC9rqTHvff-55" edge="1">
          <mxGeometry relative="1" as="geometry" />
        </mxCell>
        <mxCell id="SxPEQGApZWsC9rqTHvff-62" style="edgeStyle=orthogonalEdgeStyle;rounded=0;orthogonalLoop=1;jettySize=auto;html=1;exitX=0.5;exitY=1;exitDx=0;exitDy=0;entryX=0.5;entryY=0;entryDx=0;entryDy=0;strokeWidth=3;endArrow=none;endFill=0;fontFamily=Tahoma;fontStyle=0" parent="1" source="SxPEQGApZWsC9rqTHvff-27" target="SxPEQGApZWsC9rqTHvff-61" edge="1">
          <mxGeometry relative="1" as="geometry" />
        </mxCell>
        <mxCell id="SxPEQGApZWsC9rqTHvff-66" style="edgeStyle=orthogonalEdgeStyle;rounded=0;orthogonalLoop=1;jettySize=auto;html=1;exitX=0.5;exitY=1;exitDx=0;exitDy=0;entryX=0.5;entryY=0;entryDx=0;entryDy=0;endArrow=none;endFill=0;strokeWidth=3;fontFamily=Tahoma;fontStyle=0" parent="1" source="SxPEQGApZWsC9rqTHvff-27" target="SxPEQGApZWsC9rqTHvff-64" edge="1">
          <mxGeometry relative="1" as="geometry" />
        </mxCell>
        <mxCell id="Py5HU_dpRkEgIAF00YqD-9" style="edgeStyle=orthogonalEdgeStyle;rounded=0;orthogonalLoop=1;jettySize=auto;html=1;exitX=0.5;exitY=1;exitDx=0;exitDy=0;entryX=0.5;entryY=0;entryDx=0;entryDy=0;entryPerimeter=0;strokeWidth=3;endArrow=none;endFill=0;fontFamily=Tahoma;fontStyle=0" parent="1" source="Py5HU_dpRkEgIAF00YqD-3" target="bqFWS5N9uW7Ea1BvdyN1-56" edge="1">
          <mxGeometry relative="1" as="geometry" />
        </mxCell>
        <mxCell id="Py5HU_dpRkEgIAF00YqD-10" style="edgeStyle=orthogonalEdgeStyle;rounded=0;orthogonalLoop=1;jettySize=auto;html=1;exitX=0.5;exitY=1;exitDx=0;exitDy=0;entryX=0.5;entryY=0;entryDx=0;entryDy=0;entryPerimeter=0;strokeWidth=3;endArrow=none;endFill=0;fontFamily=Tahoma;fontStyle=0" parent="1" source="Py5HU_dpRkEgIAF00YqD-4" target="bqFWS5N9uW7Ea1BvdyN1-55" edge="1">
          <mxGeometry relative="1" as="geometry" />
        </mxCell>
        <mxCell id="Py5HU_dpRkEgIAF00YqD-11" style="edgeStyle=orthogonalEdgeStyle;rounded=0;orthogonalLoop=1;jettySize=auto;html=1;exitX=0.5;exitY=1;exitDx=0;exitDy=0;entryX=0.5;entryY=0;entryDx=0;entryDy=0;entryPerimeter=0;strokeWidth=3;endArrow=none;endFill=0;fontFamily=Tahoma;fontStyle=0" parent="1" source="Py5HU_dpRkEgIAF00YqD-6" target="SxPEQGApZWsC9rqTHvff-49" edge="1">
          <mxGeometry relative="1" as="geometry" />
        </mxCell>
        <mxCell id="Py5HU_dpRkEgIAF00YqD-12" style="edgeStyle=orthogonalEdgeStyle;rounded=0;orthogonalLoop=1;jettySize=auto;html=1;exitX=0.5;exitY=1;exitDx=0;exitDy=0;entryX=0.5;entryY=0;entryDx=0;entryDy=0;entryPerimeter=0;strokeWidth=3;endArrow=none;endFill=0;fontFamily=Tahoma;fontStyle=0" parent="1" source="Py5HU_dpRkEgIAF00YqD-8" target="SxPEQGApZWsC9rqTHvff-50" edge="1">
          <mxGeometry relative="1" as="geometry" />
        </mxCell>
        <mxCell id="bKYKXZFoOEibJwhLb-Ia-4" style="edgeStyle=orthogonalEdgeStyle;rounded=0;orthogonalLoop=1;jettySize=auto;html=1;exitX=0.5;exitY=1;exitDx=0;exitDy=0;entryX=1;entryY=0.5;entryDx=0;entryDy=0;entryPerimeter=0;strokeWidth=3;endArrow=none;endFill=0;fontFamily=Tahoma;fontStyle=0" parent="1" source="Py5HU_dpRkEgIAF00YqD-6" target="bKYKXZFoOEibJwhLb-Ia-3" edge="1">
          <mxGeometry relative="1" as="geometry">
            <Array as="points">
              <mxPoint x="1125" y="900" />
              <mxPoint x="1220" y="900" />
              <mxPoint x="1220" y="1160" />
              <mxPoint x="1205" y="1160" />
            </Array>
          </mxGeometry>
        </mxCell>
      </root>
    </mxGraphModel>
  </diagram>
</mxfile>
